<svg width="100%" height="100%" viewBox="0 0 24 24" fill="none" xmlns="http://www.w3.org/2000/svg">
 <path d="M12 12L7.72 7.72C7.26 7.26 7.03 7.03 6.87 6.76C6.72 6.52 6.61 6.26 6.55 5.98C6.48 5.67 6.48 5.35 6.48 4.7V2M12 12L16.28 7.72C16.74 7.26 16.97 7.03 17.13 6.76C17.28 6.52 17.39 6.26 17.45 5.98C17.52 5.67 17.52 5.35 17.52 4.7V2M12 12L7.72 16.28C7.26 16.74 7.03 16.97 6.87 17.24C6.72 17.48 6.61 17.74 6.55 18.02C6.48 18.33 6.48 18.65 6.48 19.3V22M12 12L16.28 16.28C16.74 16.74 16.97 16.97 17.13 17.24C17.28 17.48 17.39 17.74 17.45 18.02C17.52 18.33 17.52 18.65 17.52 19.3V22M5 2H19M5 22H19" stroke="currentColor" stroke-width="2" stroke-linecap="round" stroke-linejoin="round"/>
</svg>
